<?xml version="1.0" encoding="utf-8" standalone="no"?>
<!DOCTYPE svg PUBLIC "-//W3C//DTD SVG 1.1//EN"
  "http://www.w3.org/Graphics/SVG/1.1/DTD/svg11.dtd">
<svg xmlns:xlink="http://www.w3.org/1999/xlink" width="767.7pt" height="446.832pt" viewBox="0 0 767.7 446.832" xmlns="http://www.w3.org/2000/svg" version="1.1">
 <metadata>
  <rdf:RDF xmlns:dc="http://purl.org/dc/elements/1.1/" xmlns:cc="http://creativecommons.org/ns#" xmlns:rdf="http://www.w3.org/1999/02/22-rdf-syntax-ns#">
   <cc:Work>
    <dc:type rdf:resource="http://purl.org/dc/dcmitype/StillImage"/>
    <dc:date>2026-03-10T20:29:08.075715</dc:date>
    <dc:format>image/svg+xml</dc:format>
    <dc:creator>
     <cc:Agent>
      <dc:title>Matplotlib v3.10.1, https://matplotlib.org/</dc:title>
     </cc:Agent>
    </dc:creator>
   </cc:Work>
  </rdf:RDF>
 </metadata>
 <defs>
  <style type="text/css">*{stroke-linejoin: round; stroke-linecap: butt}</style>
 </defs>
 <g id="figure_1">
  <g id="patch_1">
   <path d="M 0 446.832 
L 767.7 446.832 
L 767.7 0 
L 0 0 
z
" style="fill: #ffffff"/>
  </g>
  <g id="axes_1">
   <g id="patch_2">
    <path d="M 46.3716 400.71312 
L 209.0844 400.71312 
Q 225.657 400.71312 225.657 391.199616 
L 225.657 81.578304 
Q 225.657 72.0648 209.0844 72.0648 
L 46.3716 72.0648 
Q 29.799 72.0648 29.799 81.578304 
L 29.799 391.199616 
Q 29.799 400.71312 46.3716 400.71312 
z
" clip-path="url(#p5150446e40)" style="fill: #f4f8fc; stroke: #dce6f0; stroke-width: 1.2; stroke-linejoin: miter"/>
   </g>
   <g id="patch_3">
    <path d="M 249.7626 366.11856 
L 517.9374 366.11856 
Q 534.51 366.11856 534.51 356.605056 
L 534.51 124.821504 
Q 534.51 115.308 517.9374 115.308 
L 249.7626 115.308 
Q 233.19 115.308 233.19 124.821504 
L 233.19 356.605056 
Q 233.19 366.11856 249.7626 366.11856 
z
" clip-path="url(#p5150446e40)" style="fill: #faf8f5; stroke: #e3d8cc; stroke-width: 1.2; stroke-linejoin: miter"/>
   </g>
   <g id="patch_4">
    <path d="M 558.6156 400.71312 
L 721.3284 400.71312 
Q 737.901 400.71312 737.901 391.199616 
L 737.901 81.578304 
Q 737.901 72.0648 721.3284 72.0648 
L 558.6156 72.0648 
Q 542.043 72.0648 542.043 81.578304 
L 542.043 391.199616 
Q 542.043 400.71312 558.6156 400.71312 
z
" clip-path="url(#p5150446e40)" style="fill: #f8f5fb; stroke: #dfd7ec; stroke-width: 1.2; stroke-linejoin: miter"/>
   </g>
   <g id="patch_5">
    <path d="M 76.5036 175.84848 
L 178.9524 175.84848 
Q 195.525 175.84848 195.525 166.334976 
L 195.525 111.848544 
Q 195.525 102.33504 178.9524 102.33504 
L 76.5036 102.33504 
Q 59.931 102.33504 59.931 111.848544 
L 59.931 166.334976 
Q 59.931 175.84848 76.5036 175.84848 
z
" clip-path="url(#p5150446e40)" style="fill: #e7f1fb; stroke: #9aa8b8; stroke-width: 1.2; stroke-linejoin: miter"/>
   </g>
   <g id="patch_6">
    <path d="M 76.5036 266.6592 
L 178.9524 266.6592 
Q 195.525 266.6592 195.525 257.145696 
L 195.525 202.659264 
Q 195.525 193.14576 178.9524 193.14576 
L 76.5036 193.14576 
Q 59.931 193.14576 59.931 202.659264 
L 59.931 257.145696 
Q 59.931 266.6592 76.5036 266.6592 
z
" clip-path="url(#p5150446e40)" style="fill: #eaf6f0; stroke: #9aa8b8; stroke-width: 1.2; stroke-linejoin: miter"/>
   </g>
   <g id="patch_7">
    <path d="M 76.5036 357.46992 
L 178.9524 357.46992 
Q 195.525 357.46992 195.525 347.956416 
L 195.525 293.469984 
Q 195.525 283.95648 178.9524 283.95648 
L 76.5036 283.95648 
Q 59.931 283.95648 59.931 293.469984 
L 59.931 347.956416 
Q 59.931 357.46992 76.5036 357.46992 
z
" clip-path="url(#p5150446e40)" style="fill: #f8f1e9; stroke: #9aa8b8; stroke-width: 1.2; stroke-linejoin: miter"/>
   </g>
   <g id="patch_8">
    <path d="M 82.53 158.464714 
C 83.488932 158.464714 84.408718 158.246008 85.086785 157.856763 
C 85.764852 157.467518 86.14584 156.939515 86.14584 156.38904 
C 86.14584 155.838565 85.764852 155.310562 85.086785 154.921317 
C 84.408718 154.532072 83.488932 154.313366 82.53 154.313366 
C 81.571068 154.313366 80.651282 154.532072 79.973215 154.921317 
C 79.295148 155.310562 78.91416 155.838565 78.91416 156.38904 
C 78.91416 156.939515 79.295148 157.467518 79.973215 157.856763 
C 80.651282 158.246008 81.571068 158.464714 82.53 158.464714 
z
" clip-path="url(#p5150446e40)" style="fill: #6b93c0; opacity: 0.85"/>
   </g>
   <g id="patch_9">
    <path d="M 82.53 149.816074 
C 83.488932 149.816074 84.408718 149.597368 85.086785 149.208123 
C 85.764852 148.818878 86.14584 148.290875 86.14584 147.7404 
C 86.14584 147.189925 85.764852 146.661922 85.086785 146.272677 
C 84.408718 145.883432 83.488932 145.664726 82.53 145.664726 
C 81.571068 145.664726 80.651282 145.883432 79.973215 146.272677 
C 79.295148 146.661922 78.91416 147.189925 78.91416 147.7404 
C 78.91416 148.290875 79.295148 148.818878 79.973215 149.208123 
C 80.651282 149.597368 81.571068 149.816074 82.53 149.816074 
z
" clip-path="url(#p5150446e40)" style="fill: #6b93c0; opacity: 0.85"/>
   </g>
   <g id="patch_10">
    <path d="M 82.53 141.167434 
C 83.488932 141.167434 84.408718 140.948728 85.086785 140.559483 
C 85.764852 140.170238 86.14584 139.642235 86.14584 139.09176 
C 86.14584 138.541285 85.764852 138.013282 85.086785 137.624037 
C 84.408718 137.234792 83.488932 137.016086 82.53 137.016086 
C 81.571068 137.016086 80.651282 137.234792 79.973215 137.624037 
C 79.295148 138.013282 78.91416 138.541285 78.91416 139.09176 
C 78.91416 139.642235 79.295148 140.170238 79.973215 140.559483 
C 80.651282 140.948728 81.571068 141.167434 82.53 141.167434 
z
" clip-path="url(#p5150446e40)" style="fill: #6b93c0; opacity: 0.85"/>
   </g>
   <g id="patch_11">
    <path d="M 82.53 132.518794 
C 83.488932 132.518794 84.408718 132.300088 85.086785 131.910843 
C 85.764852 131.521598 86.14584 130.993595 86.14584 130.44312 
C 86.14584 129.892645 85.764852 129.364642 85.086785 128.975397 
C 84.408718 128.586152 83.488932 128.367446 82.53 128.367446 
C 81.571068 128.367446 80.651282 128.586152 79.973215 128.975397 
C 79.295148 129.364642 78.91416 129.892645 78.91416 130.44312 
C 78.91416 130.993595 79.295148 131.521598 79.973215 131.910843 
C 80.651282 132.300088 81.571068 132.518794 82.53 132.518794 
z
" clip-path="url(#p5150446e40)" style="fill: #6b93c0; opacity: 0.85"/>
   </g>
   <g id="patch_12">
    <path d="M 96.0894 158.464714 
C 97.048332 158.464714 97.968118 158.246008 98.646185 157.856763 
C 99.324252 157.467518 99.70524 156.939515 99.70524 156.38904 
C 99.70524 155.838565 99.324252 155.310562 98.646185 154.921317 
C 97.968118 154.532072 97.048332 154.313366 96.0894 154.313366 
C 95.130468 154.313366 94.210682 154.532072 93.532615 154.921317 
C 92.854548 155.310562 92.47356 155.838565 92.47356 156.38904 
C 92.47356 156.939515 92.854548 157.467518 93.532615 157.856763 
C 94.210682 158.246008 95.130468 158.464714 96.0894 158.464714 
z
" clip-path="url(#p5150446e40)" style="fill: #6b93c0; opacity: 0.85"/>
   </g>
   <g id="patch_13">
    <path d="M 96.0894 149.816074 
C 97.048332 149.816074 97.968118 149.597368 98.646185 149.208123 
C 99.324252 148.818878 99.70524 148.290875 99.70524 147.7404 
C 99.70524 147.189925 99.324252 146.661922 98.646185 146.272677 
C 97.968118 145.883432 97.048332 145.664726 96.0894 145.664726 
C 95.130468 145.664726 94.210682 145.883432 93.532615 146.272677 
C 92.854548 146.661922 92.47356 147.189925 92.47356 147.7404 
C 92.47356 148.290875 92.854548 148.818878 93.532615 149.208123 
C 94.210682 149.597368 95.130468 149.816074 96.0894 149.816074 
z
" clip-path="url(#p5150446e40)" style="fill: #6b93c0; opacity: 0.85"/>
   </g>
   <g id="patch_14">
    <path d="M 96.0894 141.167434 
C 97.048332 141.167434 97.968118 140.948728 98.646185 140.559483 
C 99.324252 140.170238 99.70524 139.642235 99.70524 139.09176 
C 99.70524 138.541285 99.324252 138.013282 98.646185 137.624037 
C 97.968118 137.234792 97.048332 137.016086 96.0894 137.016086 
C 95.130468 137.016086 94.210682 137.234792 93.532615 137.624037 
C 92.854548 138.013282 92.47356 138.541285 92.47356 139.09176 
C 92.47356 139.642235 92.854548 140.170238 93.532615 140.559483 
C 94.210682 140.948728 95.130468 141.167434 96.0894 141.167434 
z
" clip-path="url(#p5150446e40)" style="fill: #6b93c0; opacity: 0.85"/>
   </g>
   <g id="patch_15">
    <path d="M 96.0894 132.518794 
C 97.048332 132.518794 97.968118 132.300088 98.646185 131.910843 
C 99.324252 131.521598 99.70524 130.993595 99.70524 130.44312 
C 99.70524 129.892645 99.324252 129.364642 98.646185 128.975397 
C 97.968118 128.586152 97.048332 128.367446 96.0894 128.367446 
C 95.130468 128.367446 94.210682 128.586152 93.532615 128.975397 
C 92.854548 129.364642 92.47356 129.892645 92.47356 130.44312 
C 92.47356 130.993595 92.854548 131.521598 93.532615 131.910843 
C 94.210682 132.300088 95.130468 132.518794 96.0894 132.518794 
z
" clip-path="url(#p5150446e40)" style="fill: #6b93c0; opacity: 0.85"/>
   </g>
   <g id="patch_16">
    <path d="M 109.6488 158.464714 
C 110.607732 158.464714 111.527518 158.246008 112.205585 157.856763 
C 112.883652 157.467518 113.26464 156.939515 113.26464 156.38904 
C 113.26464 155.838565 112.883652 155.310562 112.205585 154.921317 
C 111.527518 154.532072 110.607732 154.313366 109.6488 154.313366 
C 108.689868 154.313366 107.770082 154.532072 107.092015 154.921317 
C 106.413948 155.310562 106.03296 155.838565 106.03296 156.38904 
C 106.03296 156.939515 106.413948 157.467518 107.092015 157.856763 
C 107.770082 158.246008 108.689868 158.464714 109.6488 158.464714 
z
" clip-path="url(#p5150446e40)" style="fill: #6b93c0; opacity: 0.85"/>
   </g>
   <g id="patch_17">
    <path d="M 109.6488 149.816074 
C 110.607732 149.816074 111.527518 149.597368 112.205585 149.208123 
C 112.883652 148.818878 113.26464 148.290875 113.26464 147.7404 
C 113.26464 147.189925 112.883652 146.661922 112.205585 146.272677 
C 111.527518 145.883432 110.607732 145.664726 109.6488 145.664726 
C 108.689868 145.664726 107.770082 145.883432 107.092015 146.272677 
C 106.413948 146.661922 106.03296 147.189925 106.03296 147.7404 
C 106.03296 148.290875 106.413948 148.818878 107.092015 149.208123 
C 107.770082 149.597368 108.689868 149.816074 109.6488 149.816074 
z
" clip-path="url(#p5150446e40)" style="fill: #6b93c0; opacity: 0.85"/>
   </g>
   <g id="patch_18">
    <path d="M 109.6488 141.167434 
C 110.607732 141.167434 111.527518 140.948728 112.205585 140.559483 
C 112.883652 140.170238 113.26464 139.642235 113.26464 139.09176 
C 113.26464 138.541285 112.883652 138.013282 112.205585 137.624037 
C 111.527518 137.234792 110.607732 137.016086 109.6488 137.016086 
C 108.689868 137.016086 107.770082 137.234792 107.092015 137.624037 
C 106.413948 138.013282 106.03296 138.541285 106.03296 139.09176 
C 106.03296 139.642235 106.413948 140.170238 107.092015 140.559483 
C 107.770082 140.948728 108.689868 141.167434 109.6488 141.167434 
z
" clip-path="url(#p5150446e40)" style="fill: #6b93c0; opacity: 0.85"/>
   </g>
   <g id="patch_19">
    <path d="M 109.6488 132.518794 
C 110.607732 132.518794 111.527518 132.300088 112.205585 131.910843 
C 112.883652 131.521598 113.26464 130.993595 113.26464 130.44312 
C 113.26464 129.892645 112.883652 129.364642 112.205585 128.975397 
C 111.527518 128.586152 110.607732 128.367446 109.6488 128.367446 
C 108.689868 128.367446 107.770082 128.586152 107.092015 128.975397 
C 106.413948 129.364642 106.03296 129.892645 106.03296 130.44312 
C 106.03296 130.993595 106.413948 131.521598 107.092015 131.910843 
C 107.770082 132.300088 108.689868 132.518794 109.6488 132.518794 
z
" clip-path="url(#p5150446e40)" style="fill: #6b93c0; opacity: 0.85"/>
   </g>
   <g id="patch_20">
    <path d="M 123.2082 158.464714 
C 124.167132 158.464714 125.086918 158.246008 125.764985 157.856763 
C 126.443052 157.467518 126.82404 156.939515 126.82404 156.38904 
C 126.82404 155.838565 126.443052 155.310562 125.764985 154.921317 
C 125.086918 154.532072 124.167132 154.313366 123.2082 154.313366 
C 122.249268 154.313366 121.329482 154.532072 120.651415 154.921317 
C 119.973348 155.310562 119.59236 155.838565 119.59236 156.38904 
C 119.59236 156.939515 119.973348 157.467518 120.651415 157.856763 
C 121.329482 158.246008 122.249268 158.464714 123.2082 158.464714 
z
" clip-path="url(#p5150446e40)" style="fill: #6b93c0; opacity: 0.85"/>
   </g>
   <g id="patch_21">
    <path d="M 123.2082 149.816074 
C 124.167132 149.816074 125.086918 149.597368 125.764985 149.208123 
C 126.443052 148.818878 126.82404 148.290875 126.82404 147.7404 
C 126.82404 147.189925 126.443052 146.661922 125.764985 146.272677 
C 125.086918 145.883432 124.167132 145.664726 123.2082 145.664726 
C 122.249268 145.664726 121.329482 145.883432 120.651415 146.272677 
C 119.973348 146.661922 119.59236 147.189925 119.59236 147.7404 
C 119.59236 148.290875 119.973348 148.818878 120.651415 149.208123 
C 121.329482 149.597368 122.249268 149.816074 123.2082 149.816074 
z
" clip-path="url(#p5150446e40)" style="fill: #6b93c0; opacity: 0.85"/>
   </g>
   <g id="patch_22">
    <path d="M 123.2082 141.167434 
C 124.167132 141.167434 125.086918 140.948728 125.764985 140.559483 
C 126.443052 140.170238 126.82404 139.642235 126.82404 139.09176 
C 126.82404 138.541285 126.443052 138.013282 125.764985 137.624037 
C 125.086918 137.234792 124.167132 137.016086 123.2082 137.016086 
C 122.249268 137.016086 121.329482 137.234792 120.651415 137.624037 
C 119.973348 138.013282 119.59236 138.541285 119.59236 139.09176 
C 119.59236 139.642235 119.973348 140.170238 120.651415 140.559483 
C 121.329482 140.948728 122.249268 141.167434 123.2082 141.167434 
z
" clip-path="url(#p5150446e40)" style="fill: #6b93c0; opacity: 0.85"/>
   </g>
   <g id="patch_23">
    <path d="M 123.2082 132.518794 
C 124.167132 132.518794 125.086918 132.300088 125.764985 131.910843 
C 126.443052 131.521598 126.82404 130.993595 126.82404 130.44312 
C 126.82404 129.892645 126.443052 129.364642 125.764985 128.975397 
C 125.086918 128.586152 124.167132 128.367446 123.2082 128.367446 
C 122.249268 128.367446 121.329482 128.586152 120.651415 128.975397 
C 119.973348 129.364642 119.59236 129.892645 119.59236 130.44312 
C 119.59236 130.993595 119.973348 131.521598 120.651415 131.910843 
C 121.329482 132.300088 122.249268 132.518794 123.2082 132.518794 
z
" clip-path="url(#p5150446e40)" style="fill: #6b93c0; opacity: 0.85"/>
   </g>
   <g id="patch_24">
    <path d="M 136.7676 158.464714 
C 137.726532 158.464714 138.646318 158.246008 139.324385 157.856763 
C 140.002452 157.467518 140.38344 156.939515 140.38344 156.38904 
C 140.38344 155.838565 140.002452 155.310562 139.324385 154.921317 
C 138.646318 154.532072 137.726532 154.313366 136.7676 154.313366 
C 135.808668 154.313366 134.888882 154.532072 134.210815 154.921317 
C 133.532748 155.310562 133.15176 155.838565 133.15176 156.38904 
C 133.15176 156.939515 133.532748 157.467518 134.210815 157.856763 
C 134.888882 158.246008 135.808668 158.464714 136.7676 158.464714 
z
" clip-path="url(#p5150446e40)" style="fill: #6b93c0; opacity: 0.85"/>
   </g>
   <g id="patch_25">
    <path d="M 136.7676 149.816074 
C 137.726532 149.816074 138.646318 149.597368 139.324385 149.208123 
C 140.002452 148.818878 140.38344 148.290875 140.38344 147.7404 
C 140.38344 147.189925 140.002452 146.661922 139.324385 146.272677 
C 138.646318 145.883432 137.726532 145.664726 136.7676 145.664726 
C 135.808668 145.664726 134.888882 145.883432 134.210815 146.272677 
C 133.532748 146.661922 133.15176 147.189925 133.15176 147.7404 
C 133.15176 148.290875 133.532748 148.818878 134.210815 149.208123 
C 134.888882 149.597368 135.808668 149.816074 136.7676 149.816074 
z
" clip-path="url(#p5150446e40)" style="fill: #6b93c0; opacity: 0.85"/>
   </g>
   <g id="patch_26">
    <path d="M 136.7676 141.167434 
C 137.726532 141.167434 138.646318 140.948728 139.324385 140.559483 
C 140.002452 140.170238 140.38344 139.642235 140.38344 139.09176 
C 140.38344 138.541285 140.002452 138.013282 139.324385 137.624037 
C 138.646318 137.234792 137.726532 137.016086 136.7676 137.016086 
C 135.808668 137.016086 134.888882 137.234792 134.210815 137.624037 
C 133.532748 138.013282 133.15176 138.541285 133.15176 139.09176 
C 133.15176 139.642235 133.532748 140.170238 134.210815 140.559483 
C 134.888882 140.948728 135.808668 141.167434 136.7676 141.167434 
z
" clip-path="url(#p5150446e40)" style="fill: #6b93c0; opacity: 0.85"/>
   </g>
   <g id="patch_27">
    <path d="M 136.7676 132.518794 
C 137.726532 132.518794 138.646318 132.300088 139.324385 131.910843 
C 140.002452 131.521598 140.38344 130.993595 140.38344 130.44312 
C 140.38344 129.892645 140.002452 129.364642 139.324385 128.975397 
C 138.646318 128.586152 137.726532 128.367446 136.7676 128.367446 
C 135.808668 128.367446 134.888882 128.586152 134.210815 128.975397 
C 133.532748 129.364642 133.15176 129.892645 133.15176 130.44312 
C 133.15176 130.993595 133.532748 131.521598 134.210815 131.910843 
C 134.888882 132.300088 135.808668 132.518794 136.7676 132.518794 
z
" clip-path="url(#p5150446e40)" style="fill: #6b93c0; opacity: 0.85"/>
   </g>
   <g id="patch_28">
    <path d="M 82.53 249.275434 
C 83.488932 249.275434 84.408718 249.056728 85.086785 248.667483 
C 85.764852 248.278238 86.14584 247.750235 86.14584 247.19976 
C 86.14584 246.649285 85.764852 246.121282 85.086785 245.732037 
C 84.408718 245.342792 83.488932 245.124086 82.53 245.124086 
C 81.571068 245.124086 80.651282 245.342792 79.973215 245.732037 
C 79.295148 246.121282 78.91416 246.649285 78.91416 247.19976 
C 78.91416 247.750235 79.295148 248.278238 79.973215 248.667483 
C 80.651282 249.056728 81.571068 249.275434 82.53 249.275434 
z
" clip-path="url(#p5150446e40)" style="fill: #69a888; opacity: 0.85"/>
   </g>
   <g id="patch_29">
    <path d="M 82.53 240.626794 
C 83.488932 240.626794 84.408718 240.408088 85.086785 240.018843 
C 85.764852 239.629598 86.14584 239.101595 86.14584 238.55112 
C 86.14584 238.000645 85.764852 237.472642 85.086785 237.083397 
C 84.408718 236.694152 83.488932 236.475446 82.53 236.475446 
C 81.571068 236.475446 80.651282 236.694152 79.973215 237.083397 
C 79.295148 237.472642 78.91416 238.000645 78.91416 238.55112 
C 78.91416 239.101595 79.295148 239.629598 79.973215 240.018843 
C 80.651282 240.408088 81.571068 240.626794 82.53 240.626794 
z
" clip-path="url(#p5150446e40)" style="fill: #69a888; opacity: 0.85"/>
   </g>
   <g id="patch_30">
    <path d="M 82.53 231.978154 
C 83.488932 231.978154 84.408718 231.759448 85.086785 231.370203 
C 85.764852 230.980958 86.14584 230.452955 86.14584 229.90248 
C 86.14584 229.352005 85.764852 228.824002 85.086785 228.434757 
C 84.408718 228.045512 83.488932 227.826806 82.53 227.826806 
C 81.571068 227.826806 80.651282 228.045512 79.973215 228.434757 
C 79.295148 228.824002 78.91416 229.352005 78.91416 229.90248 
C 78.91416 230.452955 79.295148 230.980958 79.973215 231.370203 
C 80.651282 231.759448 81.571068 231.978154 82.53 231.978154 
z
" clip-path="url(#p5150446e40)" style="fill: #69a888; opacity: 0.85"/>
   </g>
   <g id="patch_31">
    <path d="M 82.53 223.329514 
C 83.488932 223.329514 84.408718 223.110808 85.086785 222.721563 
C 85.764852 222.332318 86.14584 221.804315 86.14584 221.25384 
C 86.14584 220.703365 85.764852 220.175362 85.086785 219.786117 
C 84.408718 219.396872 83.488932 219.178166 82.53 219.178166 
C 81.571068 219.178166 80.651282 219.396872 79.973215 219.786117 
C 79.295148 220.175362 78.91416 220.703365 78.91416 221.25384 
C 78.91416 221.804315 79.295148 222.332318 79.973215 222.721563 
C 80.651282 223.110808 81.571068 223.329514 82.53 223.329514 
z
" clip-path="url(#p5150446e40)" style="fill: #69a888; opacity: 0.85"/>
   </g>
   <g id="patch_32">
    <path d="M 96.0894 249.275434 
C 97.048332 249.275434 97.968118 249.056728 98.646185 248.667483 
C 99.324252 248.278238 99.70524 247.750235 99.70524 247.19976 
C 99.70524 246.649285 99.324252 246.121282 98.646185 245.732037 
C 97.968118 245.342792 97.048332 245.124086 96.0894 245.124086 
C 95.130468 245.124086 94.210682 245.342792 93.532615 245.732037 
C 92.854548 246.121282 92.47356 246.649285 92.47356 247.19976 
C 92.47356 247.750235 92.854548 248.278238 93.532615 248.667483 
C 94.210682 249.056728 95.130468 249.275434 96.0894 249.275434 
z
" clip-path="url(#p5150446e40)" style="fill: #69a888; opacity: 0.85"/>
   </g>
   <g id="patch_33">
    <path d="M 96.0894 240.626794 
C 97.048332 240.626794 97.968118 240.408088 98.646185 240.018843 
C 99.324252 239.629598 99.70524 239.101595 99.70524 238.55112 
C 99.70524 238.000645 99.324252 237.472642 98.646185 237.083397 
C 97.968118 236.694152 97.048332 236.475446 96.0894 236.475446 
C 95.130468 236.475446 94.210682 236.694152 93.532615 237.083397 
C 92.854548 237.472642 92.47356 238.000645 92.47356 238.55112 
C 92.47356 239.101595 92.854548 239.629598 93.532615 240.018843 
C 94.210682 240.408088 95.130468 240.626794 96.0894 240.626794 
z
" clip-path="url(#p5150446e40)" style="fill: #69a888; opacity: 0.85"/>
   </g>
   <g id="patch_34">
    <path d="M 96.0894 231.978154 
C 97.048332 231.978154 97.968118 231.759448 98.646185 231.370203 
C 99.324252 230.980958 99.70524 230.452955 99.70524 229.90248 
C 99.70524 229.352005 99.324252 228.824002 98.646185 228.434757 
C 97.968118 228.045512 97.048332 227.826806 96.0894 227.826806 
C 95.130468 227.826806 94.210682 228.045512 93.532615 228.434757 
C 92.854548 228.824002 92.47356 229.352005 92.47356 229.90248 
C 92.47356 230.452955 92.854548 230.980958 93.532615 231.370203 
C 94.210682 231.759448 95.130468 231.978154 96.0894 231.978154 
z
" clip-path="url(#p5150446e40)" style="fill: #69a888; opacity: 0.85"/>
   </g>
   <g id="patch_35">
    <path d="M 96.0894 223.329514 
C 97.048332 223.329514 97.968118 223.110808 98.646185 222.721563 
C 99.324252 222.332318 99.70524 221.804315 99.70524 221.25384 
C 99.70524 220.703365 99.324252 220.175362 98.646185 219.786117 
C 97.968118 219.396872 97.048332 219.178166 96.0894 219.178166 
C 95.130468 219.178166 94.210682 219.396872 93.532615 219.786117 
C 92.854548 220.175362 92.47356 220.703365 92.47356 221.25384 
C 92.47356 221.804315 92.854548 222.332318 93.532615 222.721563 
C 94.210682 223.110808 95.130468 223.329514 96.0894 223.329514 
z
" clip-path="url(#p5150446e40)" style="fill: #69a888; opacity: 0.85"/>
   </g>
   <g id="patch_36">
    <path d="M 109.6488 249.275434 
C 110.607732 249.275434 111.527518 249.056728 112.205585 248.667483 
C 112.883652 248.278238 113.26464 247.750235 113.26464 247.19976 
C 113.26464 246.649285 112.883652 246.121282 112.205585 245.732037 
C 111.527518 245.342792 110.607732 245.124086 109.6488 245.124086 
C 108.689868 245.124086 107.770082 245.342792 107.092015 245.732037 
C 106.413948 246.121282 106.03296 246.649285 106.03296 247.19976 
C 106.03296 247.750235 106.413948 248.278238 107.092015 248.667483 
C 107.770082 249.056728 108.689868 249.275434 109.6488 249.275434 
z
" clip-path="url(#p5150446e40)" style="fill: #69a888; opacity: 0.85"/>
   </g>
   <g id="patch_37">
    <path d="M 109.6488 240.626794 
C 110.607732 240.626794 111.527518 240.408088 112.205585 240.018843 
C 112.883652 239.629598 113.26464 239.101595 113.26464 238.55112 
C 113.26464 238.000645 112.883652 237.472642 112.205585 237.083397 
C 111.527518 236.694152 110.607732 236.475446 109.6488 236.475446 
C 108.689868 236.475446 107.770082 236.694152 107.092015 237.083397 
C 106.413948 237.472642 106.03296 238.000645 106.03296 238.55112 
C 106.03296 239.101595 106.413948 239.629598 107.092015 240.018843 
C 107.770082 240.408088 108.689868 240.626794 109.6488 240.626794 
z
" clip-path="url(#p5150446e40)" style="fill: #69a888; opacity: 0.85"/>
   </g>
   <g id="patch_38">
    <path d="M 109.6488 231.978154 
C 110.607732 231.978154 111.527518 231.759448 112.205585 231.370203 
C 112.883652 230.980958 113.26464 230.452955 113.26464 229.90248 
C 113.26464 229.352005 112.883652 228.824002 112.205585 228.434757 
C 111.527518 228.045512 110.607732 227.826806 109.6488 227.826806 
C 108.689868 227.826806 107.770082 228.045512 107.092015 228.434757 
C 106.413948 228.824002 106.03296 229.352005 106.03296 229.90248 
C 106.03296 230.452955 106.413948 230.980958 107.092015 231.370203 
C 107.770082 231.759448 108.689868 231.978154 109.6488 231.978154 
z
" clip-path="url(#p5150446e40)" style="fill: #69a888; opacity: 0.85"/>
   </g>
   <g id="patch_39">
    <path d="M 109.6488 223.329514 
C 110.607732 223.329514 111.527518 223.110808 112.205585 222.721563 
C 112.883652 222.332318 113.26464 221.804315 113.26464 221.25384 
C 113.26464 220.703365 112.883652 220.175362 112.205585 219.786117 
C 111.527518 219.396872 110.607732 219.178166 109.6488 219.178166 
C 108.689868 219.178166 107.770082 219.396872 107.092015 219.786117 
C 106.413948 220.175362 106.03296 220.703365 106.03296 221.25384 
C 106.03296 221.804315 106.413948 222.332318 107.092015 222.721563 
C 107.770082 223.110808 108.689868 223.329514 109.6488 223.329514 
z
" clip-path="url(#p5150446e40)" style="fill: #69a888; opacity: 0.85"/>
   </g>
   <g id="patch_40">
    <path d="M 123.2082 249.275434 
C 124.167132 249.275434 125.086918 249.056728 125.764985 248.667483 
C 126.443052 248.278238 126.82404 247.750235 126.82404 247.19976 
C 126.82404 246.649285 126.443052 246.121282 125.764985 245.732037 
C 125.086918 245.342792 124.167132 245.124086 123.2082 245.124086 
C 122.249268 245.124086 121.329482 245.342792 120.651415 245.732037 
C 119.973348 246.121282 119.59236 246.649285 119.59236 247.19976 
C 119.59236 247.750235 119.973348 248.278238 120.651415 248.667483 
C 121.329482 249.056728 122.249268 249.275434 123.2082 249.275434 
z
" clip-path="url(#p5150446e40)" style="fill: #69a888; opacity: 0.85"/>
   </g>
   <g id="patch_41">
    <path d="M 123.2082 240.626794 
C 124.167132 240.626794 125.086918 240.408088 125.764985 240.018843 
C 126.443052 239.629598 126.82404 239.101595 126.82404 238.55112 
C 126.82404 238.000645 126.443052 237.472642 125.764985 237.083397 
C 125.086918 236.694152 124.167132 236.475446 123.2082 236.475446 
C 122.249268 236.475446 121.329482 236.694152 120.651415 237.083397 
C 119.973348 237.472642 119.59236 238.000645 119.59236 238.55112 
C 119.59236 239.101595 119.973348 239.629598 120.651415 240.018843 
C 121.329482 240.408088 122.249268 240.626794 123.2082 240.626794 
z
" clip-path="url(#p5150446e40)" style="fill: #69a888; opacity: 0.85"/>
   </g>
   <g id="patch_42">
    <path d="M 123.2082 231.978154 
C 124.167132 231.978154 125.086918 231.759448 125.764985 231.370203 
C 126.443052 230.980958 126.82404 230.452955 126.82404 229.90248 
C 126.82404 229.352005 126.443052 228.824002 125.764985 228.434757 
C 125.086918 228.045512 124.167132 227.826806 123.2082 227.826806 
C 122.249268 227.826806 121.329482 228.045512 120.651415 228.434757 
C 119.973348 228.824002 119.59236 229.352005 119.59236 229.90248 
C 119.59236 230.452955 119.973348 230.980958 120.651415 231.370203 
C 121.329482 231.759448 122.249268 231.978154 123.2082 231.978154 
z
" clip-path="url(#p5150446e40)" style="fill: #69a888; opacity: 0.85"/>
   </g>
   <g id="patch_43">
    <path d="M 123.2082 223.329514 
C 124.167132 223.329514 125.086918 223.110808 125.764985 222.721563 
C 126.443052 222.332318 126.82404 221.804315 126.82404 221.25384 
C 126.82404 220.703365 126.443052 220.175362 125.764985 219.786117 
C 125.086918 219.396872 124.167132 219.178166 123.2082 219.178166 
C 122.249268 219.178166 121.329482 219.396872 120.651415 219.786117 
C 119.973348 220.175362 119.59236 220.703365 119.59236 221.25384 
C 119.59236 221.804315 119.973348 222.332318 120.651415 222.721563 
C 121.329482 223.110808 122.249268 223.329514 123.2082 223.329514 
z
" clip-path="url(#p5150446e40)" style="fill: #69a888; opacity: 0.85"/>
   </g>
   <g id="patch_44">
    <path d="M 136.7676 249.275434 
C 137.726532 249.275434 138.646318 249.056728 139.324385 248.667483 
C 140.002452 248.278238 140.38344 247.750235 140.38344 247.19976 
C 140.38344 246.649285 140.002452 246.121282 139.324385 245.732037 
C 138.646318 245.342792 137.726532 245.124086 136.7676 245.124086 
C 135.808668 245.124086 134.888882 245.342792 134.210815 245.732037 
C 133.532748 246.121282 133.15176 246.649285 133.15176 247.19976 
C 133.15176 247.750235 133.532748 248.278238 134.210815 248.667483 
C 134.888882 249.056728 135.808668 249.275434 136.7676 249.275434 
z
" clip-path="url(#p5150446e40)" style="fill: #69a888; opacity: 0.85"/>
   </g>
   <g id="patch_45">
    <path d="M 136.7676 240.626794 
C 137.726532 240.626794 138.646318 240.408088 139.324385 240.018843 
C 140.002452 239.629598 140.38344 239.101595 140.38344 238.55112 
C 140.38344 238.000645 140.002452 237.472642 139.324385 237.083397 
C 138.646318 236.694152 137.726532 236.475446 136.7676 236.475446 
C 135.808668 236.475446 134.888882 236.694152 134.210815 237.083397 
C 133.532748 237.472642 133.15176 238.000645 133.15176 238.55112 
C 133.15176 239.101595 133.532748 239.629598 134.210815 240.018843 
C 134.888882 240.408088 135.808668 240.626794 136.7676 240.626794 
z
" clip-path="url(#p5150446e40)" style="fill: #69a888; opacity: 0.85"/>
   </g>
   <g id="patch_46">
    <path d="M 136.7676 231.978154 
C 137.726532 231.978154 138.646318 231.759448 139.324385 231.370203 
C 140.002452 230.980958 140.38344 230.452955 140.38344 229.90248 
C 140.38344 229.352005 140.002452 228.824002 139.324385 228.434757 
C 138.646318 228.045512 137.726532 227.826806 136.7676 227.826806 
C 135.808668 227.826806 134.888882 228.045512 134.210815 228.434757 
C 133.532748 228.824002 133.15176 229.352005 133.15176 229.90248 
C 133.15176 230.452955 133.532748 230.980958 134.210815 231.370203 
C 134.888882 231.759448 135.808668 231.978154 136.7676 231.978154 
z
" clip-path="url(#p5150446e40)" style="fill: #69a888; opacity: 0.85"/>
   </g>
   <g id="patch_47">
    <path d="M 136.7676 223.329514 
C 137.726532 223.329514 138.646318 223.110808 139.324385 222.721563 
C 140.002452 222.332318 140.38344 221.804315 140.38344 221.25384 
C 140.38344 220.703365 140.002452 220.175362 139.324385 219.786117 
C 138.646318 219.396872 137.726532 219.178166 136.7676 219.178166 
C 135.808668 219.178166 134.888882 219.396872 134.210815 219.786117 
C 133.532748 220.175362 133.15176 220.703365 133.15176 221.25384 
C 133.15176 221.804315 133.532748 222.332318 134.210815 222.721563 
C 134.888882 223.110808 135.808668 223.329514 136.7676 223.329514 
z
" clip-path="url(#p5150446e40)" style="fill: #69a888; opacity: 0.85"/>
   </g>
   <g id="patch_48">
    <path d="M 82.53 340.086154 
C 83.488932 340.086154 84.408718 339.867448 85.086785 339.478203 
C 85.764852 339.088958 86.14584 338.560955 86.14584 338.01048 
C 86.14584 337.460005 85.764852 336.932002 85.086785 336.542757 
C 84.408718 336.153512 83.488932 335.934806 82.53 335.934806 
C 81.571068 335.934806 80.651282 336.153512 79.973215 336.542757 
C 79.295148 336.932002 78.91416 337.460005 78.91416 338.01048 
C 78.91416 338.560955 79.295148 339.088958 79.973215 339.478203 
C 80.651282 339.867448 81.571068 340.086154 82.53 340.086154 
z
" clip-path="url(#p5150446e40)" style="fill: #c78f5a; opacity: 0.85"/>
   </g>
   <g id="patch_49">
    <path d="M 82.53 331.437514 
C 83.488932 331.437514 84.408718 331.218808 85.086785 330.829563 
C 85.764852 330.440318 86.14584 329.912315 86.14584 329.36184 
C 86.14584 328.811365 85.764852 328.283362 85.086785 327.894117 
C 84.408718 327.504872 83.488932 327.286166 82.53 327.286166 
C 81.571068 327.286166 80.651282 327.504872 79.973215 327.894117 
C 79.295148 328.283362 78.91416 328.811365 78.91416 329.36184 
C 78.91416 329.912315 79.295148 330.440318 79.973215 330.829563 
C 80.651282 331.218808 81.571068 331.437514 82.53 331.437514 
z
" clip-path="url(#p5150446e40)" style="fill: #c78f5a; opacity: 0.85"/>
   </g>
   <g id="patch_50">
    <path d="M 82.53 322.788874 
C 83.488932 322.788874 84.408718 322.570168 85.086785 322.180923 
C 85.764852 321.791678 86.14584 321.263675 86.14584 320.7132 
C 86.14584 320.162725 85.764852 319.634722 85.086785 319.245477 
C 84.408718 318.856232 83.488932 318.637526 82.53 318.637526 
C 81.571068 318.637526 80.651282 318.856232 79.973215 319.245477 
C 79.295148 319.634722 78.91416 320.162725 78.91416 320.7132 
C 78.91416 321.263675 79.295148 321.791678 79.973215 322.180923 
C 80.651282 322.570168 81.571068 322.788874 82.53 322.788874 
z
" clip-path="url(#p5150446e40)" style="fill: #c78f5a; opacity: 0.85"/>
   </g>
   <g id="patch_51">
    <path d="M 82.53 314.140234 
C 83.488932 314.140234 84.408718 313.921528 85.086785 313.532283 
C 85.764852 313.143038 86.14584 312.615035 86.14584 312.06456 
C 86.14584 311.514085 85.764852 310.986082 85.086785 310.596837 
C 84.408718 310.207592 83.488932 309.988886 82.53 309.988886 
C 81.571068 309.988886 80.651282 310.207592 79.973215 310.596837 
C 79.295148 310.986082 78.91416 311.514085 78.91416 312.06456 
C 78.91416 312.615035 79.295148 313.143038 79.973215 313.532283 
C 80.651282 313.921528 81.571068 314.140234 82.53 314.140234 
z
" clip-path="url(#p5150446e40)" style="fill: #c78f5a; opacity: 0.85"/>
   </g>
   <g id="patch_52">
    <path d="M 96.0894 340.086154 
C 97.048332 340.086154 97.968118 339.867448 98.646185 339.478203 
C 99.324252 339.088958 99.70524 338.560955 99.70524 338.01048 
C 99.70524 337.460005 99.324252 336.932002 98.646185 336.542757 
C 97.968118 336.153512 97.048332 335.934806 96.0894 335.934806 
C 95.130468 335.934806 94.210682 336.153512 93.532615 336.542757 
C 92.854548 336.932002 92.47356 337.460005 92.47356 338.01048 
C 92.47356 338.560955 92.854548 339.088958 93.532615 339.478203 
C 94.210682 339.867448 95.130468 340.086154 96.0894 340.086154 
z
" clip-path="url(#p5150446e40)" style="fill: #c78f5a; opacity: 0.85"/>
   </g>
   <g id="patch_53">
    <path d="M 96.0894 331.437514 
C 97.048332 331.437514 97.968118 331.218808 98.646185 330.829563 
C 99.324252 330.440318 99.70524 329.912315 99.70524 329.36184 
C 99.70524 328.811365 99.324252 328.283362 98.646185 327.894117 
C 97.968118 327.504872 97.048332 327.286166 96.0894 327.286166 
C 95.130468 327.286166 94.210682 327.504872 93.532615 327.894117 
C 92.854548 328.283362 92.47356 328.811365 92.47356 329.36184 
C 92.47356 329.912315 92.854548 330.440318 93.532615 330.829563 
C 94.210682 331.218808 95.130468 331.437514 96.0894 331.437514 
z
" clip-path="url(#p5150446e40)" style="fill: #c78f5a; opacity: 0.85"/>
   </g>
   <g id="patch_54">
    <path d="M 96.0894 322.788874 
C 97.048332 322.788874 97.968118 322.570168 98.646185 322.180923 
C 99.324252 321.791678 99.70524 321.263675 99.70524 320.7132 
C 99.70524 320.162725 99.324252 319.634722 98.646185 319.245477 
C 97.968118 318.856232 97.048332 318.637526 96.0894 318.637526 
C 95.130468 318.637526 94.210682 318.856232 93.532615 319.245477 
C 92.854548 319.634722 92.47356 320.162725 92.47356 320.7132 
C 92.47356 321.263675 92.854548 321.791678 93.532615 322.180923 
C 94.210682 322.570168 95.130468 322.788874 96.0894 322.788874 
z
" clip-path="url(#p5150446e40)" style="fill: #c78f5a; opacity: 0.85"/>
   </g>
   <g id="patch_55">
    <path d="M 96.0894 314.140234 
C 97.048332 314.140234 97.968118 313.921528 98.646185 313.532283 
C 99.324252 313.143038 99.70524 312.615035 99.70524 312.06456 
C 99.70524 311.514085 99.324252 310.986082 98.646185 310.596837 
C 97.968118 310.207592 97.048332 309.988886 96.0894 309.988886 
C 95.130468 309.988886 94.210682 310.207592 93.532615 310.596837 
C 92.854548 310.986082 92.47356 311.514085 92.47356 312.06456 
C 92.47356 312.615035 92.854548 313.143038 93.532615 313.532283 
C 94.210682 313.921528 95.130468 314.140234 96.0894 314.140234 
z
" clip-path="url(#p5150446e40)" style="fill: #c78f5a; opacity: 0.85"/>
   </g>
   <g id="patch_56">
    <path d="M 109.6488 340.086154 
C 110.607732 340.086154 111.527518 339.867448 112.205585 339.478203 
C 112.883652 339.088958 113.26464 338.560955 113.26464 338.01048 
C 113.26464 337.460005 112.883652 336.932002 112.205585 336.542757 
C 111.527518 336.153512 110.607732 335.934806 109.6488 335.934806 
C 108.689868 335.934806 107.770082 336.153512 107.092015 336.542757 
C 106.413948 336.932002 106.03296 337.460005 106.03296 338.01048 
C 106.03296 338.560955 106.413948 339.088958 107.092015 339.478203 
C 107.770082 339.867448 108.689868 340.086154 109.6488 340.086154 
z
" clip-path="url(#p5150446e40)" style="fill: #c78f5a; opacity: 0.85"/>
   </g>
   <g id="patch_57">
    <path d="M 109.6488 331.437514 
C 110.607732 331.437514 111.527518 331.218808 112.205585 330.829563 
C 112.883652 330.440318 113.26464 329.912315 113.26464 329.36184 
C 113.26464 328.811365 112.883652 328.283362 112.205585 327.894117 
C 111.527518 327.504872 110.607732 327.286166 109.6488 327.286166 
C 108.689868 327.286166 107.770082 327.504872 107.092015 327.894117 
C 106.413948 328.283362 106.03296 328.811365 106.03296 329.36184 
C 106.03296 329.912315 106.413948 330.440318 107.092015 330.829563 
C 107.770082 331.218808 108.689868 331.437514 109.6488 331.437514 
z
" clip-path="url(#p5150446e40)" style="fill: #c78f5a; opacity: 0.85"/>
   </g>
   <g id="patch_58">
    <path d="M 109.6488 322.788874 
C 110.607732 322.788874 111.527518 322.570168 112.205585 322.180923 
C 112.883652 321.791678 113.26464 321.263675 113.26464 320.7132 
C 113.26464 320.162725 112.883652 319.634722 112.205585 319.245477 
C 111.527518 318.856232 110.607732 318.637526 109.6488 318.637526 
C 108.689868 318.637526 107.770082 318.856232 107.092015 319.245477 
C 106.413948 319.634722 106.03296 320.162725 106.03296 320.7132 
C 106.03296 321.263675 106.413948 321.791678 107.092015 322.180923 
C 107.770082 322.570168 108.689868 322.788874 109.6488 322.788874 
z
" clip-path="url(#p5150446e40)" style="fill: #c78f5a; opacity: 0.85"/>
   </g>
   <g id="patch_59">
    <path d="M 109.6488 314.140234 
C 110.607732 314.140234 111.527518 313.921528 112.205585 313.532283 
C 112.883652 313.143038 113.26464 312.615035 113.26464 312.06456 
C 113.26464 311.514085 112.883652 310.986082 112.205585 310.596837 
C 111.527518 310.207592 110.607732 309.988886 109.6488 309.988886 
C 108.689868 309.988886 107.770082 310.207592 107.092015 310.596837 
C 106.413948 310.986082 106.03296 311.514085 106.03296 312.06456 
C 106.03296 312.615035 106.413948 313.143038 107.092015 313.532283 
C 107.770082 313.921528 108.689868 314.140234 109.6488 314.140234 
z
" clip-path="url(#p5150446e40)" style="fill: #c78f5a; opacity: 0.85"/>
   </g>
   <g id="patch_60">
    <path d="M 123.2082 340.086154 
C 124.167132 340.086154 125.086918 339.867448 125.764985 339.478203 
C 126.443052 339.088958 126.82404 338.560955 126.82404 338.01048 
C 126.82404 337.460005 126.443052 336.932002 125.764985 336.542757 
C 125.086918 336.153512 124.167132 335.934806 123.2082 335.934806 
C 122.249268 335.934806 121.329482 336.153512 120.651415 336.542757 
C 119.973348 336.932002 119.59236 337.460005 119.59236 338.01048 
C 119.59236 338.560955 119.973348 339.088958 120.651415 339.478203 
C 121.329482 339.867448 122.249268 340.086154 123.2082 340.086154 
z
" clip-path="url(#p5150446e40)" style="fill: #c78f5a; opacity: 0.85"/>
   </g>
   <g id="patch_61">
    <path d="M 123.2082 331.437514 
C 124.167132 331.437514 125.086918 331.218808 125.764985 330.829563 
C 126.443052 330.440318 126.82404 329.912315 126.82404 329.36184 
C 126.82404 328.811365 126.443052 328.283362 125.764985 327.894117 
C 125.086918 327.504872 124.167132 327.286166 123.2082 327.286166 
C 122.249268 327.286166 121.329482 327.504872 120.651415 327.894117 
C 119.973348 328.283362 119.59236 328.811365 119.59236 329.36184 
C 119.59236 329.912315 119.973348 330.440318 120.651415 330.829563 
C 121.329482 331.218808 122.249268 331.437514 123.2082 331.437514 
z
" clip-path="url(#p5150446e40)" style="fill: #c78f5a; opacity: 0.85"/>
   </g>
   <g id="patch_62">
    <path d="M 123.2082 322.788874 
C 124.167132 322.788874 125.086918 322.570168 125.764985 322.180923 
C 126.443052 321.791678 126.82404 321.263675 126.82404 320.7132 
C 126.82404 320.162725 126.443052 319.634722 125.764985 319.245477 
C 125.086918 318.856232 124.167132 318.637526 123.2082 318.637526 
C 122.249268 318.637526 121.329482 318.856232 120.651415 319.245477 
C 119.973348 319.634722 119.59236 320.162725 119.59236 320.7132 
C 119.59236 321.263675 119.973348 321.791678 120.651415 322.180923 
C 121.329482 322.570168 122.249268 322.788874 123.2082 322.788874 
z
" clip-path="url(#p5150446e40)" style="fill: #c78f5a; opacity: 0.85"/>
   </g>
   <g id="patch_63">
    <path d="M 123.2082 314.140234 
C 124.167132 314.140234 125.086918 313.921528 125.764985 313.532283 
C 126.443052 313.143038 126.82404 312.615035 126.82404 312.06456 
C 126.82404 311.514085 126.443052 310.986082 125.764985 310.596837 
C 125.086918 310.207592 124.167132 309.988886 123.2082 309.988886 
C 122.249268 309.988886 121.329482 310.207592 120.651415 310.596837 
C 119.973348 310.986082 119.59236 311.514085 119.59236 312.06456 
C 119.59236 312.615035 119.973348 313.143038 120.651415 313.532283 
C 121.329482 313.921528 122.249268 314.140234 123.2082 314.140234 
z
" clip-path="url(#p5150446e40)" style="fill: #c78f5a; opacity: 0.85"/>
   </g>
   <g id="patch_64">
    <path d="M 136.7676 340.086154 
C 137.726532 340.086154 138.646318 339.867448 139.324385 339.478203 
C 140.002452 339.088958 140.38344 338.560955 140.38344 338.01048 
C 140.38344 337.460005 140.002452 336.932002 139.324385 336.542757 
C 138.646318 336.153512 137.726532 335.934806 136.7676 335.934806 
C 135.808668 335.934806 134.888882 336.153512 134.210815 336.542757 
C 133.532748 336.932002 133.15176 337.460005 133.15176 338.01048 
C 133.15176 338.560955 133.532748 339.088958 134.210815 339.478203 
C 134.888882 339.867448 135.808668 340.086154 136.7676 340.086154 
z
" clip-path="url(#p5150446e40)" style="fill: #c78f5a; opacity: 0.85"/>
   </g>
   <g id="patch_65">
    <path d="M 136.7676 331.437514 
C 137.726532 331.437514 138.646318 331.218808 139.324385 330.829563 
C 140.002452 330.440318 140.38344 329.912315 140.38344 329.36184 
C 140.38344 328.811365 140.002452 328.283362 139.324385 327.894117 
C 138.646318 327.504872 137.726532 327.286166 136.7676 327.286166 
C 135.808668 327.286166 134.888882 327.504872 134.210815 327.894117 
C 133.532748 328.283362 133.15176 328.811365 133.15176 329.36184 
C 133.15176 329.912315 133.532748 330.440318 134.210815 330.829563 
C 134.888882 331.218808 135.808668 331.437514 136.7676 331.437514 
z
" clip-path="url(#p5150446e40)" style="fill: #c78f5a; opacity: 0.85"/>
   </g>
   <g id="patch_66">
    <path d="M 136.7676 322.788874 
C 137.726532 322.788874 138.646318 322.570168 139.324385 322.180923 
C 140.002452 321.791678 140.38344 321.263675 140.38344 320.7132 
C 140.38344 320.162725 140.002452 319.634722 139.324385 319.245477 
C 138.646318 318.856232 137.726532 318.637526 136.7676 318.637526 
C 135.808668 318.637526 134.888882 318.856232 134.210815 319.245477 
C 133.532748 319.634722 133.15176 320.162725 133.15176 320.7132 
C 133.15176 321.263675 133.532748 321.791678 134.210815 322.180923 
C 134.888882 322.570168 135.808668 322.788874 136.7676 322.788874 
z
" clip-path="url(#p5150446e40)" style="fill: #c78f5a; opacity: 0.85"/>
   </g>
   <g id="patch_67">
    <path d="M 136.7676 314.140234 
C 137.726532 314.140234 138.646318 313.921528 139.324385 313.532283 
C 140.002452 313.143038 140.38344 312.615035 140.38344 312.06456 
C 140.38344 311.514085 140.002452 310.986082 139.324385 310.596837 
C 138.646318 310.207592 137.726532 309.988886 136.7676 309.988886 
C 135.808668 309.988886 134.888882 310.207592 134.210815 310.596837 
C 133.532748 310.986082 133.15176 311.514085 133.15176 312.06456 
C 133.15176 312.615035 133.532748 313.143038 134.210815 313.532283 
C 134.888882 313.921528 135.808668 314.140234 136.7676 314.140234 
z
" clip-path="url(#p5150446e40)" style="fill: #c78f5a; opacity: 0.85"/>
   </g>
   <g id="patch_68">
    <path d="M 308.52 318.55104 
L 459.18 318.55104 
Q 481.779 318.55104 481.779 305.57808 
L 481.779 184.49712 
Q 481.779 171.52416 459.18 171.52416 
L 308.52 171.52416 
Q 285.921 171.52416 285.921 184.49712 
L 285.921 305.57808 
Q 285.921 318.55104 308.52 318.55104 
z
" clip-path="url(#p5150446e40)" style="fill: #fff5ea; stroke: #d39d77; stroke-width: 2; stroke-linejoin: miter"/>
   </g>
   <g id="patch_69">
    <path d="M 316.053 192.280896 
C 319.648995 192.280896 323.098191 191.460748 325.640944 190.001081 
C 328.183696 188.541413 329.6124 186.561402 329.6124 184.49712 
C 329.6124 182.432838 328.183696 180.452827 325.640944 178.993159 
C 323.098191 177.533492 319.648995 176.713344 316.053 176.713344 
C 312.457005 176.713344 309.007809 177.533492 306.465056 178.993159 
C 303.922304 180.452827 302.4936 182.432838 302.4936 184.49712 
C 302.4936 186.561402 303.922304 188.541413 306.465056 190.001081 
C 309.007809 191.460748 312.457005 192.280896 316.053 192.280896 
z
" clip-path="url(#p5150446e40)" style="fill: #d97a57; opacity: 0.95"/>
   </g>
   <g id="patch_70">
    <path d="M 316.053 235.524096 
C 319.648995 235.524096 323.098191 234.703948 325.640944 233.244281 
C 328.183696 231.784613 329.6124 229.804602 329.6124 227.74032 
C 329.6124 225.676038 328.183696 223.696027 325.640944 222.236359 
C 323.098191 220.776692 319.648995 219.956544 316.053 219.956544 
C 312.457005 219.956544 309.007809 220.776692 306.465056 222.236359 
C 303.922304 223.696027 302.4936 225.676038 302.4936 227.74032 
C 302.4936 229.804602 303.922304 231.784613 306.465056 233.244281 
C 309.007809 234.703948 312.457005 235.524096 316.053 235.524096 
z
" clip-path="url(#p5150446e40)" style="fill: #d97a57; opacity: 0.95"/>
   </g>
   <g id="patch_71">
    <path d="M 316.053 278.767296 
C 319.648995 278.767296 323.098191 277.947148 325.640944 276.487481 
C 328.183696 275.027813 329.6124 273.047802 329.6124 270.98352 
C 329.6124 268.919238 328.183696 266.939227 325.640944 265.479559 
C 323.098191 264.019892 319.648995 263.199744 316.053 263.199744 
C 312.457005 263.199744 309.007809 264.019892 306.465056 265.479559 
C 303.922304 266.939227 302.4936 268.919238 302.4936 270.98352 
C 302.4936 273.047802 303.922304 275.027813 306.465056 276.487481 
C 309.007809 277.947148 312.457005 278.767296 316.053 278.767296 
z
" clip-path="url(#p5150446e40)" style="fill: #d97a57; opacity: 0.95"/>
   </g>
   <g id="patch_72">
    <path d="M 588.7476 193.14576 
L 691.1964 193.14576 
Q 707.769 193.14576 707.769 183.632256 
L 707.769 124.821504 
Q 707.769 115.308 691.1964 115.308 
L 588.7476 115.308 
Q 572.175 115.308 572.175 124.821504 
L 572.175 183.632256 
Q 572.175 193.14576 588.7476 193.14576 
z
" clip-path="url(#p5150446e40)" style="fill: #efe9fa; stroke: #9aa8b8; stroke-width: 1.2; stroke-linejoin: miter"/>
   </g>
   <g id="patch_73">
    <path d="M 588.7476 288.2808 
L 691.1964 288.2808 
Q 707.769 288.2808 707.769 278.767296 
L 707.769 219.956544 
Q 707.769 210.44304 691.1964 210.44304 
L 588.7476 210.44304 
Q 572.175 210.44304 572.175 219.956544 
L 572.175 278.767296 
Q 572.175 288.2808 588.7476 288.2808 
z
" clip-path="url(#p5150446e40)" style="fill: #f9ecf0; stroke: #9aa8b8; stroke-width: 1.2; stroke-linejoin: miter"/>
   </g>
   <g id="patch_74">
    <path d="M 588.7476 383.41584 
L 691.1964 383.41584 
Q 707.769 383.41584 707.769 373.902336 
L 707.769 315.091584 
Q 707.769 305.57808 691.1964 305.57808 
L 588.7476 305.57808 
Q 572.175 305.57808 572.175 315.091584 
L 572.175 373.902336 
Q 572.175 383.41584 588.7476 383.41584 
z
" clip-path="url(#p5150446e40)" style="fill: #eef2fb; stroke: #9aa8b8; stroke-width: 1.2; stroke-linejoin: miter"/>
   </g>
   <g id="patch_75">
    <path d="M 279.8946 357.46992 
L 337.1454 357.46992 
Q 353.718 357.46992 353.718 347.956416 
L 353.718 323.740224 
Q 353.718 314.22672 337.1454 314.22672 
L 279.8946 314.22672 
Q 263.322 314.22672 263.322 323.740224 
L 263.322 347.956416 
Q 263.322 357.46992 279.8946 357.46992 
z
" clip-path="url(#p5150446e40)" style="fill: #ebd6bf; stroke: #9aa8b8; stroke-width: 1.2; stroke-linejoin: miter"/>
   </g>
   <g id="patch_76">
    <path d="M 370.2906 357.46992 
L 427.5414 357.46992 
Q 444.114 357.46992 444.114 347.956416 
L 444.114 323.740224 
Q 444.114 314.22672 427.5414 314.22672 
L 370.2906 314.22672 
Q 353.718 314.22672 353.718 323.740224 
L 353.718 347.956416 
Q 353.718 357.46992 370.2906 357.46992 
z
" clip-path="url(#p5150446e40)" style="fill: #e6ddf7; stroke: #9aa8b8; stroke-width: 1.2; stroke-linejoin: miter"/>
   </g>
   <g id="patch_77">
    <path d="M 460.6866 357.46992 
L 517.9374 357.46992 
Q 534.51 357.46992 534.51 347.956416 
L 534.51 323.740224 
Q 534.51 314.22672 517.9374 314.22672 
L 460.6866 314.22672 
Q 444.114 314.22672 444.114 323.740224 
L 444.114 347.956416 
Q 444.114 357.46992 460.6866 357.46992 
z
" clip-path="url(#p5150446e40)" style="fill: #dcecf6; stroke: #9aa8b8; stroke-width: 1.2; stroke-linejoin: miter"/>
   </g>
   <g id="patch_78">
    <path d="M 189.899014 139.688383 
Q 252.296783 159.440848 299.547041 204.729204 
" clip-path="url(#p5150446e40)" style="fill: none; opacity: 0.9; stroke: #b7c4d4; stroke-width: 3; stroke-linecap: round"/>
   </g>
   <g id="patch_79">
    <path d="M 189.981689 230.092844 
Q 244.49008 235.307935 298.998471 240.523027 
" clip-path="url(#p5150446e40)" style="fill: none; opacity: 0.9; stroke: #b7c4d4; stroke-width: 3; stroke-linecap: round"/>
   </g>
   <g id="patch_80">
    <path d="M 189.966631 320.414425 
Q 249.764177 311.14443 299.350006 276.461732 
" clip-path="url(#p5150446e40)" style="fill: none; opacity: 0.9; stroke: #b7c4d4; stroke-width: 3; stroke-linecap: round"/>
   </g>
   <g id="patch_81">
    <path d="M 468.656951 205.650924 
Q 528.239054 191.121238 578.087263 155.395902 
" clip-path="url(#p5150446e40)" style="fill: none; opacity: 0.95; stroke: #c8b7e8; stroke-width: 3; stroke-linecap: round"/>
   </g>
   <g id="patch_82">
    <path d="M 468.709585 245.114009 
Q 523.211202 247.199787 577.71282 249.285564 
" clip-path="url(#p5150446e40)" style="fill: none; opacity: 0.95; stroke: #e1b8c3; stroke-width: 3; stroke-linecap: round"/>
   </g>
   <g id="patch_83">
    <path d="M 468.643855 284.469633 
Q 530.257664 301.072221 578.210183 343.172747 
" clip-path="url(#p5150446e40)" style="fill: none; opacity: 0.95; stroke: #b9cae8; stroke-width: 3; stroke-linecap: round"/>
   </g>
   <g id="patch_84">
    <path d="M 272.477096 177.012436 
Q 285.919418 186.658145 298.271695 195.521678 
" clip-path="url(#p5150446e40)" style="fill: none; stroke: #5e6b7a; stroke-width: 1.2; stroke-linecap: round"/>
    <path d="M 295.562638 190.377651 
L 298.271695 195.521678 
L 292.531039 194.602507 
z
" clip-path="url(#p5150446e40)" style="fill: #5e6b7a; stroke: #5e6b7a; stroke-width: 1.2; stroke-linecap: round"/>
   </g>
   <g id="patch_85">
    <path d="M 272.77871 228.292473 
Q 285.920426 232.064475 297.77257 235.466338 
" clip-path="url(#p5150446e40)" style="fill: none; stroke: #5e6b7a; stroke-width: 1.2; stroke-linecap: round"/>
    <path d="M 293.491683 231.532637 
L 297.77257 235.466338 
L 292.057077 236.530827 
z
" clip-path="url(#p5150446e40)" style="fill: #5e6b7a; stroke: #5e6b7a; stroke-width: 1.2; stroke-linecap: round"/>
   </g>
   <g id="patch_86">
    <path d="M 271.997088 316.912 
Q 285.919642 296.931389 299.075179 278.051543 
" clip-path="url(#p5150446e40)" style="fill: none; stroke: #5e6b7a; stroke-width: 1.2; stroke-linecap: round"/>
    <path d="M 293.969133 280.831525 
L 299.075179 278.051543 
L 298.235537 283.804369 
z
" clip-path="url(#p5150446e40)" style="fill: #5e6b7a; stroke: #5e6b7a; stroke-width: 1.2; stroke-linecap: round"/>
   </g>
   <g id="patch_87">
    <path d="M 468.578549 205.404774 
Q 523.208943 184.497716 576.586321 164.070187 
" clip-path="url(#p5150446e40)" style="fill: none; stroke: #5e6b7a; stroke-width: 1.2; stroke-linecap: round"/>
    <path d="M 570.800521 163.500519 
L 576.586321 164.070187 
L 572.659107 168.357026 
z
" clip-path="url(#p5150446e40)" style="fill: #5e6b7a; stroke: #5e6b7a; stroke-width: 1.2; stroke-linecap: round"/>
   </g>
   <g id="patch_88">
    <path d="M 468.709585 245.114009 
Q 523.211202 247.199787 576.37216 249.234257 
" clip-path="url(#p5150446e40)" style="fill: none; stroke: #5e6b7a; stroke-width: 1.2; stroke-linecap: round"/>
    <path d="M 571.275393 246.437301 
L 576.37216 249.234257 
L 571.076535 251.633497 
z
" clip-path="url(#p5150446e40)" style="fill: #5e6b7a; stroke: #5e6b7a; stroke-width: 1.2; stroke-linecap: round"/>
   </g>
   <g id="patch_89">
    <path d="M 468.475099 284.900577 
Q 523.210661 314.226806 576.763627 342.919423 
" clip-path="url(#p5150446e40)" style="fill: none; stroke: #5e6b7a; stroke-width: 1.2; stroke-linecap: round"/>
    <path d="M 573.40795 338.171852 
L 576.763627 342.919423 
L 570.952164 342.755422 
z
" clip-path="url(#p5150446e40)" style="fill: #5e6b7a; stroke: #5e6b7a; stroke-width: 1.2; stroke-linecap: round"/>
   </g>
   <g id="patch_90">
    <path d="M 257.2956 128.28096 
L 329.6124 128.28096 
Q 346.185 128.28096 346.185 118.767456 
L 346.185 94.551264 
Q 346.185 85.03776 329.6124 85.03776 
L 257.2956 85.03776 
Q 240.723 85.03776 240.723 94.551264 
L 240.723 118.767456 
Q 240.723 128.28096 257.2956 128.28096 
z
" clip-path="url(#p5150446e40)" style="fill: #ffffff; stroke: #9aa8b8; stroke-width: 1.2; stroke-linejoin: miter"/>
   </g>
   <g id="patch_91">
    <path d="M 370.2906 128.28096 
L 457.6734 128.28096 
Q 474.246 128.28096 474.246 118.767456 
L 474.246 94.551264 
Q 474.246 85.03776 457.6734 85.03776 
L 370.2906 85.03776 
Q 353.718 85.03776 353.718 94.551264 
L 353.718 118.767456 
Q 353.718 128.28096 370.2906 128.28096 
z
" clip-path="url(#p5150446e40)" style="fill: #ffffff; stroke: #9aa8b8; stroke-width: 1.2; stroke-linejoin: miter"/>
   </g>
   <g id="patch_92">
    <path d="M 498.3516 128.28096 
L 570.6684 128.28096 
Q 587.241 128.28096 587.241 118.767456 
L 587.241 94.551264 
Q 587.241 85.03776 570.6684 85.03776 
L 498.3516 85.03776 
Q 481.779 85.03776 481.779 94.551264 
L 481.779 118.767456 
Q 481.779 128.28096 498.3516 128.28096 
z
" clip-path="url(#p5150446e40)" style="fill: #ffffff; stroke: #9aa8b8; stroke-width: 1.2; stroke-linejoin: miter"/>
   </g>
   <g id="text_1">
    <text style="font-weight: 700; font-size: 23px; font-family: 'DejaVu Sans'; text-anchor: start; fill: #1d2433" x="44.865" y="54.946646" transform="rotate(-0 44.865 54.946646)">MESA multimodal biomarker modeling</text>
   </g>
   <g id="text_2">
    <text style="font-size: 12.5px; font-family: 'DejaVu Sans'; text-anchor: start; fill: #5e6b7a" x="44.865" y="66.427727" transform="rotate(-0 44.865 66.427727)">An illustration of how independent cfDNA feature layers are distilled into a single predictive model.</text>
   </g>
   <g id="text_3">
    <text style="font-weight: 700; font-size: 13px; font-family: 'DejaVu Sans'; fill: #1d2433" transform="translate(83.83675 135.448368)">Methylation</text>
    <text style="font-weight: 700; font-size: 13px; font-family: 'DejaVu Sans'; fill: #1d2433" transform="translate(86.814563 149.909527)">CpG matrix</text>
   </g>
   <g id="text_4">
    <text style="font-weight: 700; font-size: 13px; font-family: 'DejaVu Sans'; fill: #1d2433" transform="translate(73.727219 226.259088)">Fragmentation</text>
    <text style="font-weight: 700; font-size: 13px; font-family: 'DejaVu Sans'; fill: #1d2433" transform="translate(74.601672 240.720247)">feature matrix</text>
   </g>
   <g id="text_5">
    <text style="font-weight: 700; font-size: 13px; font-family: 'DejaVu Sans'; fill: #1d2433" transform="translate(83.402063 317.120589)">Other omics</text>
    <text style="font-weight: 700; font-size: 13px; font-family: 'DejaVu Sans'; fill: #1d2433" transform="translate(74.601672 331.480186)">feature matrix</text>
   </g>
   <g id="text_6">
    <text style="font-size: 12px; font-family: 'DejaVu Sans'; text-anchor: middle; fill: #5e6b7a" x="127.728" y="93.6864" transform="rotate(-0 127.728 93.6864)">Independent modalities</text>
   </g>
   <g id="text_7">
    <text style="font-weight: 700; font-size: 24px; font-family: 'DejaVu Sans'; text-anchor: middle; fill: #8a5a32" x="383.85" y="208.4169" transform="rotate(-0 383.85 208.4169)">MESA</text>
   </g>
   <g id="text_8">
    <text style="font-size: 12.5px; font-family: 'DejaVu Sans'; text-anchor: middle; fill: #1d2433" x="383.85" y="227.74032" transform="rotate(-0 383.85 227.74032)">feature filtering</text>
   </g>
   <g id="text_9">
    <text style="font-size: 12.5px; font-family: 'DejaVu Sans'; text-anchor: middle; fill: #1d2433" x="383.85" y="249.36192" transform="rotate(-0 383.85 249.36192)">redundancy pruning</text>
   </g>
   <g id="text_10">
    <text style="font-size: 12.5px; font-family: 'DejaVu Sans'; text-anchor: middle; fill: #1d2433" x="383.85" y="270.98352" transform="rotate(-0 383.85 270.98352)">Boruta selection</text>
   </g>
   <g id="text_11">
    <text style="font-size: 12.5px; font-family: 'DejaVu Sans'; text-anchor: middle; fill: #1d2433" x="383.85" y="292.60512" transform="rotate(-0 383.85 292.60512)">task-aware prediction</text>
   </g>
   <g id="text_12">
    <text style="font-weight: 700; font-size: 9px; font-family: 'DejaVu Sans'; text-anchor: middle; fill: #ffffff" x="316.053" y="187.412989" transform="rotate(-0 316.053 187.412989)">1</text>
   </g>
   <g id="text_13">
    <text style="font-weight: 700; font-size: 9px; font-family: 'DejaVu Sans'; text-anchor: middle; fill: #ffffff" x="316.053" y="230.656189" transform="rotate(-0 316.053 230.656189)">2</text>
   </g>
   <g id="text_14">
    <text style="font-weight: 700; font-size: 9px; font-family: 'DejaVu Sans'; text-anchor: middle; fill: #ffffff" x="316.053" y="273.899389" transform="rotate(-0 316.053 273.899389)">3</text>
   </g>
   <g id="text_15">
    <text style="font-weight: 700; font-size: 13px; font-family: 'DejaVu Sans'; fill: #1d2433" transform="translate(590.898016 150.634269)">Classification</text>
    <text style="font-weight: 700; font-size: 13px; font-family: 'DejaVu Sans'; fill: #1d2433" transform="translate(593.6595 164.993866)">probabilities</text>
   </g>
   <g id="text_16">
    <text style="font-weight: 700; font-size: 13px; font-family: 'DejaVu Sans'; fill: #1d2433" transform="translate(599.23325 245.718528)">Regression</text>
    <text style="font-weight: 700; font-size: 13px; font-family: 'DejaVu Sans'; fill: #1d2433" transform="translate(598.674656 260.179687)">predictions</text>
   </g>
   <g id="text_17">
    <text style="font-weight: 700; font-size: 13px; font-family: 'DejaVu Sans'; fill: #1d2433" transform="translate(580.548797 340.904349)">Cross-validation</text>
    <text style="font-weight: 700; font-size: 13px; font-family: 'DejaVu Sans'; fill: #1d2433" transform="translate(582.849188 355.263946)">AUC / R² / RMSE</text>
   </g>
   <g id="text_18">
    <text style="font-size: 12px; font-family: 'DejaVu Sans'; text-anchor: middle; fill: #5e6b7a" x="639.972" y="93.6864" transform="rotate(-0 639.972 93.6864)">Task-aware outputs</text>
   </g>
   <g id="text_19">
    <text style="font-weight: 700; font-size: 10.5px; font-family: 'DejaVu Sans'; fill: #1d2433" transform="translate(283.533281 332.946596)">selected</text>
    <text style="font-weight: 700; font-size: 10.5px; font-family: 'DejaVu Sans'; fill: #1d2433" transform="translate(293.475469 344.544732)">CpGs</text>
   </g>
   <g id="text_20">
    <text style="font-weight: 700; font-size: 10.5px; font-family: 'DejaVu Sans'; fill: #1d2433" transform="translate(373.00643 332.90558)">modality</text>
    <text style="font-weight: 700; font-size: 10.5px; font-family: 'DejaVu Sans'; fill: #1d2433" transform="translate(377.595258 344.585747)">models</text>
   </g>
   <g id="text_21">
    <text style="font-weight: 700; font-size: 10.5px; font-family: 'DejaVu Sans'; fill: #1d2433" transform="translate(466.350633 332.90558)">stacked</text>
    <text style="font-weight: 700; font-size: 10.5px; font-family: 'DejaVu Sans'; fill: #1d2433" transform="translate(471.549773 344.503716)">signal</text>
   </g>
   <g id="text_22">
    <text style="font-size: 10.5px; font-family: 'DejaVu Sans'; fill: #1d2433" transform="translate(259.986891 103.757636)">sample-level</text>
    <text style="font-size: 10.5px; font-family: 'DejaVu Sans'; fill: #1d2433" transform="translate(272.198062 115.355772)">analysis</text>
   </g>
   <g id="text_23">
    <text style="font-size: 10.5px; font-family: 'DejaVu Sans'; fill: #1d2433" transform="translate(379.848797 103.757636)">interpretable</text>
    <text style="font-size: 10.5px; font-family: 'DejaVu Sans'; fill: #1d2433" transform="translate(369.764695 115.355772)">feature selection</text>
   </g>
   <g id="text_24">
    <text style="font-size: 10.5px; font-family: 'DejaVu Sans'; fill: #1d2433" transform="translate(504.758906 103.757636)">multimodal</text>
    <text style="font-size: 10.5px; font-family: 'DejaVu Sans'; fill: #1d2433" transform="translate(505.671094 115.355772)">integration</text>
   </g>
   <g id="text_25">
    <text style="font-size: 10.5px; font-family: 'DejaVu Sans'; text-anchor: middle; fill: #5e6b7a" x="383.85" y="416.583424" transform="rotate(-0 383.85 416.583424)">Figure C. Illustration-style summary of MESA. Multiple cfDNA-derived feature layers are refined into a compact, task-aware biomarker model.</text>
   </g>
  </g>
 </g>
 <defs>
  <clipPath id="p5150446e40">
   <rect x="7.2" y="7.2" width="753.3" height="432.432"/>
  </clipPath>
 </defs>
</svg>
